<svg xmlns="http://www.w3.org/2000/svg" width="635.08" height="911.877" viewBox="0 0 635.08 911.877">
    <defs>
        <style>
            .cls-1{fill:#9fd6b7}.cls-1,.cls-10,.cls-2,.cls-3,.cls-4,.cls-5,.cls-6,.cls-7,.cls-8,.cls-9{opacity:.488}.cls-2{fill:#f7b798}.cls-3{fill:#e7e7ff}.cls-4{fill:#91b9b8}.cls-5{fill:#bec6d0}.cls-6{fill:#f7ead4}.cls-7{fill:#f5bb98}.cls-8{fill:#a8cacb}.cls-9{fill:#d0ebdc}.cls-10{fill:#8989ad}
        </style>
    </defs>
    <g id="Gruppe_514" data-name="Gruppe 514" transform="translate(155.971 135.791)">
        <path id="Pfad_2772" d="M832.358 75.128c-8.058 13.636 4.029 35.639 4.029 35.639 14.875 29.441-17.974 48.345-17.974 48.345a50.441 50.441 0 0 1-48.965-2.479c-34.089-29.131-39.358-19.214-39.358-19.214-3.1 4.958 4.649 13.946 4.649 13.946 29.441 20.764 33.779 31.3 32.23 42.767s-11.656 20.9-20.763 24.482c-8.677 3.409-18.594 3.623-35.639 0-11.946-2.539-22.623-20.764-22.623-20.764-40.289-48.655-56.714-103.508-41.528-126.75s70.658-25.722 70.658-25.722c128.3-43.077 123.179.93 123.179.93 1.402 13.634-7.895 28.82-7.895 28.82z" class="cls-1" data-name="Pfad 2772" transform="rotate(-28 932.507 1798.129)"/>
        <path id="Pfad_2773" d="M832.358 172.593c-8.058-13.636 4.029-35.639 4.029-35.639 14.875-29.441-17.974-48.345-17.974-48.345a50.441 50.441 0 0 0-48.965 2.479c-34.09 29.131-39.358 19.212-39.358 19.212-3.1-4.958 4.649-13.946 4.649-13.946 29.441-20.764 33.779-31.3 32.23-42.767s-11.656-20.9-20.763-24.482c-8.677-3.409-18.594-3.623-35.639 0-11.946 2.539-22.623 20.764-22.623 20.764-40.287 48.655-56.712 103.508-41.527 126.751s70.658 25.722 70.658 25.722c128.3 43.077 123.179-.93 123.179-.93 1.401-13.634-7.896-28.819-7.896-28.819z" class="cls-2" data-name="Pfad 2773" transform="rotate(56 485.4 -633.96)"/>
        <path id="Pfad_2775" d="M99.254 816.514c-6.933 4.9-16.509 13.115-23.048 3.524-5.168-7.58-5.121-18.009-10.426-25.844-11.009-16.259-25.294-19.714-43.269-12.608-24.1 9.528-42.323 42.978-32.763 68.112 2.982 7.84 9.92 16.547 15.793 22.553 3.845 3.933 10.688 5.722 13.5 10.566 5.52 9.508-1.232 23.5.654 33.419 6.36 33.431 45.26 55.674 77.447 46.945 10.157-2.755 10.316-10.7 18.306-15.274 8.42-4.818 20.283.517 29.193-.067a43.8 43.8 0 0 0 34.921-20.9c6.716-10.89 6.156-22.821 4.894-35.041-.851-8.238-1.546-9.635 2.432-16.364 9.427-15.944 21.632-35.015 17.668-54.173-4.025-19.453-15.962-43.554-38.11-45.722-11.268-1.1-22.394 8.331-32.258 13.1-10.631 5.141-17.858 11.853-25.179 20.629-4.361 5.236-11.994 7.243-9.755 7.145z" class="cls-3" data-name="Pfad 2775" transform="translate(-65.688 -290.205)"/>
        <path id="Pfad_2776" d="M423.368 1398.749c-7.15-3.142-15.3-3.131-24.15-.216-10.514 3.465-20.733 7.809-31.321 1.933-20-11.1-5.172-27.207-1.6-42.379 1.717-7.288-2.73-11.919-1.862-18.54 1.641-12.51 16.819-21.772 27.009-25.99 9.481-3.925 20.483-7.048 30.951-4.895 9.6 1.974 11.677 9.576 19.351 13.483 34.23 17.427 76.641-42.2 102.42-1.678 13.3 20.907-.647 47.537-14.354 64.578-9.39 11.674-24.1 28.962-37.852 35.245-30.247 13.818-57.177-18.6-83.116-25.413" class="cls-4" data-name="Pfad 2776" transform="translate(-273.824 -1211.469)"/>
        <ellipse id="Ellipse_368" cx="3.166" cy="6.277" class="cls-5" data-name="Ellipse 368" rx="3.166" ry="6.277" transform="translate(353.007 34.537)"/>
        <ellipse id="Ellipse_369" cx="3.166" cy="6.277" class="cls-6" data-name="Ellipse 369" rx="3.166" ry="6.277" transform="translate(29.007 294.537)"/>
        <ellipse id="Ellipse_371" cx="4.332" cy="1.898" class="cls-6" data-name="Ellipse 371" rx="4.332" ry="1.898" transform="translate(38.338 310.533)"/>
        <ellipse id="Ellipse_373" cx="1.846" cy="3.249" class="cls-6" data-name="Ellipse 373" rx="1.846" ry="3.249" transform="translate(38.087 330.531)"/>
        <ellipse id="Ellipse_374" cx="5.166" cy="5.165" class="cls-5" data-name="Ellipse 374" rx="5.166" ry="5.165" transform="translate(342.676 51.646)"/>
        <ellipse id="Ellipse_375" cx="5.166" cy="5.165" class="cls-6" data-name="Ellipse 375" rx="5.166" ry="5.165" transform="translate(26.676 316.646)"/>
        <ellipse id="Ellipse_376" cx="4.43" cy="4.43" class="cls-5" data-name="Ellipse 376" rx="4.43" ry="4.43" transform="translate(345.676 69.779)"/>
        <ellipse id="Ellipse_377" cx="4.43" cy="4.43" class="cls-6" data-name="Ellipse 377" rx="4.43" ry="4.43" transform="translate(24.676 338.779)"/>
        <ellipse id="Ellipse_378" cx="7.317" cy="5.642" class="cls-5" data-name="Ellipse 378" rx="7.317" ry="5.642" transform="translate(335.359 110.482)"/>
        <ellipse id="Ellipse_380" cx="1.5" cy="3.934" class="cls-6" data-name="Ellipse 380" rx="1.5" ry="3.934" transform="translate(52.001 314.332)"/>
        <ellipse id="Ellipse_382" cx="4.666" cy="1.75" class="cls-6" data-name="Ellipse 382" rx="4.666" ry="1.75" transform="translate(48.669 330.029)"/>
        <path id="Pfad_2777" d="M2.573 1640.489c10.38-9.4 18.063-24.484 24.037-37.193a116.334 116.334 0 0 1 23.768-33.958c9.576-9.622 45.474-28.358 57.6-16.213 16.793 16.819-.164 53.813 33.806 53.951 26.65.109 57.812-19.245 69.079 15.679 5.514 17.094 13.106 33.46 10.224 52.1-.961 6.221-3.415 19.911-10.736 21-2.61-5.931 1.028-13.882 1.679-20.125.976-9.354-1.1-18.4-2.178-27.7-1.342-11.594-2.553-29.7-14.387-35.293-22.107-10.455-63.331 26.928-74.845 3.746-7.195-14.486-8.687-30.8-15.928-45.033-2.568-5.05-2.082-6.944-7.345-8.65-5.2-1.686-10.439.593-14.988 3-15.241 8.06-23.515 24.534-36.131 36.075-14.677 13.426-19.77 31.944-27.246 49.909-2.638 6.34-24.075 35.571-26.382 18.419-.94-6.992 4.712-12.885 7.155-18.992 3.573-8.933 4.94-14.3 13.485-20.677" class="cls-7" data-name="Pfad 2777" transform="translate(32.53 -991.296)"/>
        <ellipse id="Ellipse_383" cx="3.384" cy="5.904" class="cls-8" data-name="Ellipse 383" rx="3.384" ry="5.904" transform="translate(285.907 556.84)"/>
        <ellipse id="Ellipse_384" cx="3.981" cy="5.375" class="cls-8" data-name="Ellipse 384" rx="3.981" ry="5.375" transform="translate(281.528 582.584)"/>
        <ellipse id="Ellipse_385" cx="2.389" cy="5.442" class="cls-8" data-name="Ellipse 385" rx="2.389" ry="5.442" transform="translate(307.803 578.203)"/>
        <ellipse id="Ellipse_386" cx="2.787" cy="4.346" class="cls-8" data-name="Ellipse 386" rx="2.787" ry="4.346" transform="translate(310.192 562.744)"/>
        <ellipse id="Ellipse_387" cx="7.506" cy="4.944" class="cls-8" data-name="Ellipse 387" rx="7.506" ry="4.944" transform="translate(337.38 557.201)"/>
        <ellipse id="Ellipse_388" cx="5.442" cy="5.442" class="cls-8" data-name="Ellipse 388" rx="5.442" ry="5.442" transform="translate(320.543 578.203)"/>
        <ellipse id="Ellipse_389" cx="5.176" cy="5.176" class="cls-8" data-name="Ellipse 389" rx="5.176" ry="5.176" transform="translate(310.192 602.488)"/>
        <ellipse id="Ellipse_390" cx="4.777" cy="6.171" class="cls-8" data-name="Ellipse 390" rx="4.777" ry="6.171" transform="translate(291.082 602.488)"/>
        <path id="Pfad_2779" d="M765.281 1905.52c-5.61 2.211-4.037 8.9-1.218 12.675 8.039 10.769 21.2 15.566 32.7 21.513 7.432 3.846 9.715 9.869 16 15 3.735 3.051 7.611 6.505 12.015 8.553 5.357 2.491 10.966 2.936 16.1 6.157 6.192 3.887 11.574 9.022 17.675 13.095s12.914 6.777 19.563 9.81c9.931 4.53 20.071 8.505 28.437 15.792 3.942 3.433 12.872 14.362 19.168 8.439 8.435-7.935-14.107-13.265-18.22-14.764-9.326-3.4-17.964-10.154-26.657-14.884-8.073-4.392-16.668-7.118-24.782-11.185-8.77-4.395-13.96-13.472-23.17-17.655-3.577-1.624-7.508-2.618-10.759-4.846-3.786-2.6-7.006-6.534-10.284-9.718-7.246-7.037-14.632-10.278-23.1-15.586-9.331-5.847-18.157-11.754-23.128-21.535-.661-.037-1.347.052-.34-.861z" class="cls-9" data-name="Pfad 2779" transform="translate(-499.54 -1547.375)"/>
        <path id="Pfad_2780" d="M857.979 1918.433c-1.788 10.707 10.326 12.409 17.926 16.155 12.132 5.979 22.489 12.936 33.561 20.582 10.811 7.466 21.156 14.5 31.286 22.946 4.931 4.112 9.514 8.547 14.234 12.873 2.806 2.571 7.571 7.846 11.627 7.831 1.308-5.667-10.962-13.568-14.869-17.016-5.665-5-12.539-8.253-18.412-13.12-9.75-8.08-20.411-15.154-30.37-22.935-13.728-10.726-30.488-16.742-44.983-27.316z" class="cls-9" data-name="Pfad 2780" transform="translate(-563.176 -1555.909)"/>
        <path id="Pfad_2781" d="M946.217 1878.278c-3.488 8.452 7.632 18.585 12.879 23.847a233.418 233.418 0 0 0 18.1 16.876c5.023 4.058 10.4 7.049 15.61 10.816 12.015 8.693 24.517 16.789 36.6 25.465 6.009 4.315 14.357 14.8 22.281 13.712.8-5.71-6.411-13.142-10.736-15.72-6.921-4.127-15.265-3-22.291-7.964-12.712-8.988-22.881-22.361-34.3-32.9-5.711-5.272-11.388-10.356-16.987-15.771-2.678-2.59-6.145-4.7-8.608-7.413-1.905-2.1-2.89-4.911-4.475-7.272-1.156-1.722-4.4-7.069-7.285-6.092-1.739.59-1.844 2.979-.788 2.416z" class="cls-9" data-name="Pfad 2781" transform="translate(-621.156 -1527.697)"/>
        <path id="Pfad_2782" d="M1045.169 1859.738c-4.949 4.468-7.144 7.783-3.536 14.3 3.524 6.363 9.2 10.832 15.235 14.583 4.248 2.64 3.278 2.089 4.432 6.464 1.716 6.511 9.426 12.377 15.167 15.263 7.112 3.575 11.114 9.97 19.458 11.245 3.56-4.063 1.62-10.952-3.43-11.673-3.075-.44-5.574 1.176-8.529-.53-4.31-2.488-3.086-6.881-5.333-10.464-2.364-3.767-6.3-1.945-9.352-5.334-2.861-3.179-3.658-7.722-6.984-10.711-4.879-4.385-9.794-2.25-8.756-11.339.355-3.1 2.363-5.99-1.537-8.206-1.687-.959-4.472-.544-6.475-.894-.418.287-.538.714-.36-2.704z" class="cls-9" data-name="Pfad 2782" transform="translate(-683.481 -1719.12)"/>
        <path id="Pfad_2778" d="M644.831 1420.787c-13.934-69.671 34.238-75.245 34.238-75.245 39.414.8 44.191-21.1 44.191-21.1 2.787-10.351-2.787-30.655-2.787-30.655-3.583-30.257 32.248-34.636 32.248-34.636 31.452-1.593 36.627-3.185 41.8-10.351s8.361-28.267 8.361-28.267c3.583-28.266 25.48-18.313 25.48-18.313 62.107 42.2 62.5 168.007 62.5 168.007-10.351 110.677-71.993 101.123-71.993 101.123-31.12-37.821-83.672-20.3-83.672-20.3-80.811 33.038-90.366-30.263-90.366-30.263z" class="cls-10" data-name="Pfad 2778" transform="translate(-411.761 -695.469)"/>
        <ellipse id="Ellipse_379" cx="1.5" cy="3.934" class="cls-5" data-name="Ellipse 379" rx="1.5" ry="3.934" transform="translate(379.001 52.332)"/>
        <ellipse id="Ellipse_381" cx="4.666" cy="1.75" class="cls-5" data-name="Ellipse 381" rx="4.666" ry="1.75" transform="translate(375.669 68.029)"/>
        <ellipse id="Ellipse_370" cx="4.332" cy="1.898" class="cls-5" data-name="Ellipse 370" rx="4.332" ry="1.898" transform="translate(365.338 48.533)"/>
        <ellipse id="Ellipse_372" cx="1.846" cy="3.249" class="cls-5" data-name="Ellipse 372" rx="1.846" ry="3.249" transform="translate(363.087 61.531)"/>
    </g>
</svg>
