<?xml version="1.0" encoding="utf-8"?>
<!-- Generator: Adobe Illustrator 23.0.3, SVG Export Plug-In . SVG Version: 6.00 Build 0)  -->
<svg version="1.1" id="Ebene_1" xmlns="http://www.w3.org/2000/svg" xmlns:xlink="http://www.w3.org/1999/xlink" x="0px" y="0px"
	 viewBox="0 0 192 192" style="enable-background:new 0 0 192 192;" xml:space="preserve">
<style type="text/css">
	.st0{fill:#FFFFFF;}
	.st1{fill:#34E85A;}
</style>
<g>
	
		<ellipse transform="matrix(0.1602 -0.9871 0.9871 0.1602 -17.3252 177.3788)" class="st0" cx="95.58" cy="98.87" rx="72.26" ry="72.26"/>
	<path class="st1" d="M95.58,31.77c37,0,67.1,30.1,67.1,67.1s-30.1,67.1-67.1,67.1s-67.1-30.1-67.1-67.1S58.58,31.77,95.58,31.77
		 M95.58,21.45c-42.76,0-77.42,34.66-77.42,77.42s34.66,77.42,77.42,77.42S173,141.63,173,98.87S138.34,21.45,95.58,21.45
		L95.58,21.45z"/>
</g>
<g>
	<path d="M55.06,109.27V88.44h5.72v15.84h9.45v4.99H55.06z"/>
	<path d="M81.35,109.45c-1.58,0-3.02-0.3-4.31-0.91c-1.29-0.61-2.4-1.4-3.32-2.39c-0.92-0.99-1.63-2.12-2.14-3.39
		c-0.51-1.27-0.76-2.58-0.76-3.93c0-1.37,0.26-2.69,0.79-3.96c0.53-1.27,1.27-2.39,2.22-3.36c0.95-0.97,2.07-1.74,3.37-2.32
		c1.3-0.58,2.72-0.87,4.27-0.87c1.58,0,3.02,0.3,4.31,0.91c1.29,0.61,2.4,1.41,3.32,2.41c0.92,1,1.63,2.13,2.13,3.4
		c0.5,1.27,0.75,2.57,0.75,3.9c0,1.37-0.26,2.68-0.79,3.95c-0.53,1.26-1.26,2.38-2.2,3.34c-0.94,0.97-2.06,1.75-3.36,2.33
		C84.32,109.15,82.9,109.45,81.35,109.45z M76.63,98.89c0,0.7,0.1,1.38,0.29,2.04c0.2,0.66,0.49,1.24,0.88,1.75
		c0.39,0.51,0.88,0.92,1.48,1.23c0.6,0.31,1.31,0.47,2.13,0.47s1.54-0.16,2.14-0.48c0.61-0.32,1.1-0.74,1.48-1.26
		c0.38-0.52,0.66-1.11,0.85-1.78c0.19-0.66,0.28-1.34,0.28-2.02c0-0.7-0.1-1.38-0.29-2.04c-0.2-0.66-0.49-1.23-0.89-1.73
		c-0.4-0.5-0.9-0.9-1.5-1.2c-0.6-0.3-1.3-0.45-2.1-0.45c-0.82,0-1.53,0.16-2.13,0.47c-0.6,0.31-1.09,0.73-1.48,1.25
		c-0.39,0.52-0.68,1.11-0.87,1.76C76.72,97.53,76.63,98.2,76.63,98.89z"/>
	<path d="M108.55,107.54c-1.49,1.25-3.2,1.88-5.13,1.88c-1.35,0-2.64-0.24-3.87-0.72c-1.23-0.48-2.31-1.18-3.23-2.1
		c-0.92-0.92-1.65-2.04-2.2-3.37c-0.55-1.33-0.82-2.85-0.82-4.55c0-1.47,0.27-2.83,0.82-4.09s1.3-2.36,2.26-3.29
		c0.96-0.93,2.09-1.66,3.39-2.2c1.3-0.54,2.7-0.81,4.21-0.81c0.94,0,1.84,0.1,2.7,0.31c0.86,0.21,1.66,0.51,2.39,0.91
		c0.73,0.4,1.39,0.88,1.98,1.44c0.59,0.56,1.07,1.19,1.44,1.89l-4.25,3.26c-0.41-0.82-1.03-1.48-1.85-1.98
		c-0.82-0.5-1.69-0.75-2.61-0.75c-0.69,0-1.31,0.14-1.88,0.41c-0.57,0.27-1.06,0.66-1.47,1.14c-0.41,0.49-0.73,1.07-0.97,1.75
		c-0.23,0.67-0.35,1.41-0.35,2.22c0,0.82,0.12,1.56,0.35,2.23c0.23,0.67,0.56,1.24,0.98,1.72c0.42,0.48,0.92,0.85,1.51,1.11
		c0.59,0.26,1.24,0.4,1.97,0.4c1.66,0,3.13-0.68,4.4-2.05h-3.61v-4.11h8.57v11.09h-4.72V107.54z"/>
	<path d="M125.48,109.45c-1.58,0-3.02-0.3-4.31-0.91c-1.29-0.61-2.4-1.4-3.32-2.39c-0.92-0.99-1.63-2.12-2.14-3.39
		c-0.51-1.27-0.76-2.58-0.76-3.93c0-1.37,0.26-2.69,0.79-3.96c0.53-1.27,1.27-2.39,2.22-3.36c0.95-0.97,2.07-1.74,3.37-2.32
		c1.3-0.58,2.72-0.87,4.27-0.87c1.58,0,3.02,0.3,4.31,0.91c1.29,0.61,2.4,1.41,3.32,2.41c0.92,1,1.63,2.13,2.13,3.4
		c0.5,1.27,0.75,2.57,0.75,3.9c0,1.37-0.26,2.68-0.79,3.95c-0.53,1.26-1.26,2.38-2.2,3.34c-0.94,0.97-2.06,1.75-3.36,2.33
		C128.44,109.15,127.02,109.45,125.48,109.45z M120.75,98.89c0,0.7,0.1,1.38,0.29,2.04c0.2,0.66,0.49,1.24,0.88,1.75
		c0.39,0.51,0.88,0.92,1.48,1.23c0.6,0.31,1.31,0.47,2.13,0.47c0.82,0,1.54-0.16,2.14-0.48c0.61-0.32,1.1-0.74,1.48-1.26
		c0.38-0.52,0.66-1.11,0.85-1.78c0.19-0.66,0.28-1.34,0.28-2.02c0-0.7-0.1-1.38-0.29-2.04c-0.2-0.66-0.49-1.23-0.89-1.73
		c-0.4-0.5-0.9-0.9-1.5-1.2c-0.6-0.3-1.3-0.45-2.1-0.45c-0.82,0-1.53,0.16-2.13,0.47c-0.6,0.31-1.09,0.73-1.48,1.25
		c-0.39,0.52-0.68,1.11-0.87,1.76C120.84,97.53,120.75,98.2,120.75,98.89z"/>
</g>
</svg>
