<?xml version="1.0" encoding="utf-8"?>
<!-- Generator: Adobe Illustrator 23.0.3, SVG Export Plug-In . SVG Version: 6.00 Build 0)  -->
<svg version="1.1" id="Ebene_1" xmlns="http://www.w3.org/2000/svg" xmlns:xlink="http://www.w3.org/1999/xlink" x="0px" y="0px"
	 viewBox="0 0 512 512" style="enable-background:new 0 0 512 512;" xml:space="preserve">
<style type="text/css">
	.st0{fill:#FFFFFF;}
	.st1{fill:#34E85A;}
</style>
<g>
	<path class="st0" d="M256.66,478.62c-59.21,0-114.87-23.06-156.74-64.92s-64.92-97.53-64.92-156.74
		c0-59.21,23.06-114.87,64.92-156.74c41.87-41.87,97.53-64.92,156.74-64.92s114.88,23.06,156.74,64.92
		c41.87,41.87,64.92,97.53,64.92,156.74c0,59.21-23.06,114.88-64.92,156.74S315.87,478.62,256.66,478.62z"/>
	<path class="st1" d="M256.66,51.12c27.8,0,54.75,5.44,80.11,16.16c24.51,10.37,46.52,25.21,65.44,44.12s33.76,40.93,44.12,65.44
		c10.72,25.36,16.16,52.31,16.16,80.11s-5.44,54.75-16.16,80.11c-10.37,24.51-25.21,46.52-44.12,65.44s-40.93,33.76-65.44,44.12
		c-25.36,10.72-52.31,16.16-80.11,16.16s-54.75-5.44-80.11-16.16c-24.51-10.37-46.52-25.21-65.44-44.12s-33.76-40.93-44.12-65.44
		c-10.72-25.36-16.16-52.31-16.16-80.11s5.44-54.75,16.16-80.11c10.37-24.51,25.21-46.52,44.12-65.44s40.93-33.76,65.44-44.12
		C201.9,56.55,228.86,51.12,256.66,51.12 M256.66,19.45c-131.17,0-237.5,106.33-237.5,237.5s106.33,237.5,237.5,237.5
		s237.5-106.33,237.5-237.5S387.83,19.45,256.66,19.45L256.66,19.45z"/>
</g>
<g>
	<path d="M132.37,288.86v-63.9h17.55v48.6h28.98v15.3H132.37z"/>
	<path d="M213.01,289.4c-4.86,0-9.27-0.93-13.23-2.79c-3.96-1.86-7.35-4.3-10.17-7.33c-2.82-3.03-5.01-6.49-6.57-10.4
		c-1.56-3.9-2.34-7.92-2.34-12.06c0-4.2,0.81-8.25,2.43-12.15c1.62-3.9,3.88-7.33,6.79-10.31c2.91-2.97,6.36-5.34,10.35-7.11
		c3.99-1.77,8.35-2.65,13.09-2.65c4.86,0,9.27,0.93,13.23,2.79c3.96,1.86,7.35,4.32,10.17,7.38c2.82,3.06,5,6.54,6.53,10.44
		c1.53,3.9,2.29,7.89,2.29,11.97c0,4.2-0.81,8.24-2.43,12.1c-1.62,3.87-3.87,7.29-6.75,10.26c-2.88,2.97-6.32,5.35-10.31,7.15
		C222.11,288.5,217.75,289.4,213.01,289.4z M198.52,257c0,2.16,0.3,4.25,0.9,6.25c0.6,2.01,1.5,3.8,2.7,5.35
		c1.2,1.56,2.71,2.82,4.54,3.78c1.83,0.96,4.01,1.44,6.53,1.44s4.71-0.5,6.57-1.49c1.86-0.99,3.38-2.28,4.54-3.87
		c1.17-1.59,2.04-3.4,2.61-5.45c0.57-2.04,0.85-4.11,0.85-6.21c0-2.16-0.3-4.24-0.9-6.25c-0.6-2.01-1.52-3.78-2.75-5.31
		c-1.23-1.53-2.76-2.76-4.59-3.69c-1.83-0.93-3.98-1.4-6.44-1.4c-2.52,0-4.7,0.48-6.52,1.44c-1.83,0.96-3.35,2.24-4.54,3.83
		c-1.2,1.59-2.09,3.39-2.66,5.4C198.8,252.84,198.52,254.9,198.52,257z"/>
	<path d="M296.44,283.55c-4.56,3.84-9.81,5.76-15.75,5.76c-4.14,0-8.1-0.73-11.88-2.21c-3.78-1.47-7.08-3.61-9.9-6.44
		c-2.82-2.82-5.07-6.27-6.75-10.35c-1.68-4.08-2.52-8.73-2.52-13.95c0-4.5,0.84-8.68,2.52-12.55s3.99-7.23,6.93-10.08
		c2.94-2.85,6.4-5.1,10.4-6.75c3.99-1.65,8.29-2.48,12.91-2.48c2.88,0,5.64,0.31,8.28,0.95c2.64,0.63,5.08,1.56,7.33,2.79
		c2.25,1.23,4.28,2.7,6.07,4.41c1.8,1.71,3.27,3.65,4.41,5.81l-13.05,9.99c-1.26-2.52-3.15-4.54-5.67-6.07
		c-2.52-1.53-5.19-2.29-8.01-2.29c-2.1,0-4.02,0.42-5.76,1.26c-1.74,0.84-3.24,2.01-4.5,3.51c-1.26,1.5-2.25,3.28-2.97,5.35
		c-0.72,2.07-1.08,4.34-1.08,6.79c0,2.52,0.36,4.8,1.08,6.84c0.72,2.04,1.72,3.8,3.02,5.27c1.29,1.47,2.83,2.61,4.63,3.42
		c1.8,0.81,3.81,1.21,6.03,1.21c5.1,0,9.6-2.1,13.5-6.3h-11.07v-12.6h26.28v34.02h-14.49V283.55z"/>
	<path d="M348.37,289.4c-4.86,0-9.27-0.93-13.23-2.79c-3.96-1.86-7.35-4.3-10.17-7.33c-2.82-3.03-5.01-6.49-6.57-10.4
		c-1.56-3.9-2.34-7.92-2.34-12.06c0-4.2,0.81-8.25,2.43-12.15c1.62-3.9,3.88-7.33,6.79-10.31c2.91-2.97,6.36-5.34,10.35-7.11
		c3.99-1.77,8.35-2.65,13.1-2.65c4.86,0,9.27,0.93,13.23,2.79c3.96,1.86,7.35,4.32,10.17,7.38c2.82,3.06,5,6.54,6.53,10.44
		c1.53,3.9,2.29,7.89,2.29,11.97c0,4.2-0.81,8.24-2.43,12.1c-1.62,3.87-3.87,7.29-6.75,10.26c-2.88,2.97-6.32,5.35-10.31,7.15
		C357.47,288.5,353.11,289.4,348.37,289.4z M333.88,257c0,2.16,0.3,4.25,0.9,6.25c0.6,2.01,1.5,3.8,2.7,5.35
		c1.2,1.56,2.71,2.82,4.54,3.78c1.83,0.96,4,1.44,6.52,1.44c2.52,0,4.71-0.5,6.57-1.49c1.86-0.99,3.38-2.28,4.54-3.87
		c1.17-1.59,2.04-3.4,2.61-5.45c0.57-2.04,0.85-4.11,0.85-6.21c0-2.16-0.3-4.24-0.9-6.25c-0.6-2.01-1.52-3.78-2.75-5.31
		c-1.23-1.53-2.76-2.76-4.59-3.69c-1.83-0.93-3.98-1.4-6.44-1.4c-2.52,0-4.7,0.48-6.52,1.44c-1.83,0.96-3.35,2.24-4.55,3.83
		c-1.2,1.59-2.08,3.39-2.65,5.4C334.16,252.84,333.88,254.9,333.88,257z"/>
</g>
</svg>
